<svg width="14" height="12" viewBox="0 0 14 12" fill="none" xmlns="http://www.w3.org/2000/svg">
<path d="M0.851073 2.45878H13.1491C13.6184 2.45878 14 2.07718 14 1.60791C14 1.13864 13.6184 0.756836 13.1491 0.756836H0.851073C0.381806 0.756836 0 1.13864 0 1.60791C0 2.07718 0.381806 2.45878 0.851073 2.45878Z" fill="#BBC2FA"/>
<path d="M13.1491 5.14893H0.851073C0.381806 5.14893 0 5.53073 0 6C0 6.46927 0.381806 6.85087 0.851073 6.85087H13.1491C13.6184 6.85087 14 6.46927 14 6C14 5.53073 13.6184 5.14893 13.1491 5.14893Z" fill="#BBC2FA"/>
<path d="M13.1491 9.54102H0.851073C0.381806 9.54102 0 9.92302 0 10.3923C0 10.8616 0.381806 11.2432 0.851073 11.2432H13.1491C13.6184 11.2432 14 10.8616 14 10.3923C14 9.92302 13.6184 9.54102 13.1491 9.54102Z" fill="#BBC2FA"/>
</svg>
