<svg width="24" height="22" viewBox="0 0 24 22" fill="none" xmlns="http://www.w3.org/2000/svg">
<path d="M0 10.8347H4.83757V21.638H0V10.8347Z" fill="#BBC2FA"/>
<path d="M23.1532 14.5695C22.6234 14.2135 21.9541 14.1449 21.3624 14.3863L19.8101 15.0199C17.4894 15.9771 14.664 15.5855 12.7393 13.981L14.4357 12.285C14.8354 11.8853 15.0552 11.3537 15.0552 10.7886C15.0632 8.91815 12.7632 7.96665 11.443 9.29233C11.443 9.29228 8.30325 12.4325 8.30325 12.4325H6.24658V20.2848C7.46161 20.4253 13.3391 21.4177 14.439 21.36C16.6065 21.3599 18.7313 20.7137 20.5494 19.4812C21.9664 18.5208 23.3214 17.6073 23.335 17.5979L23.3914 17.5598C24.2884 16.7429 24.1698 15.2332 23.1532 14.5695Z" fill="#BBC2FA"/>
<path d="M21.5108 5.3405C22.8855 5.3405 24 4.22603 24 2.85127C24 1.4765 22.8855 0.36203 21.5108 0.36203C20.136 0.36203 19.0215 1.4765 19.0215 2.85127C19.0215 4.22603 20.136 5.3405 21.5108 5.3405Z" fill="#BBC2FA"/>
<path d="M19.4442 11.0235C20.819 11.0235 21.9335 9.909 21.9335 8.53424C21.9335 7.15947 20.819 6.045 19.4442 6.045C18.0695 6.045 16.955 7.15947 16.955 8.53424C16.955 9.909 18.0695 11.0235 19.4442 11.0235Z" fill="#BBC2FA"/>
<path d="M12.5401 6.045C13.9149 6.045 15.0293 4.93053 15.0293 3.55577C15.0293 2.181 13.9149 1.06653 12.5401 1.06653C11.1653 1.06653 10.0509 2.181 10.0509 3.55577C10.0509 4.93053 11.1653 6.045 12.5401 6.045Z" fill="#BBC2FA"/>
</svg>
