<svg width="24" height="24" viewBox="0 0 24 24" fill="none" xmlns="http://www.w3.org/2000/svg">
<path d="M5.21055 4.10524H7.1053C7.19252 4.10524 7.26318 4.03452 7.26318 3.94736V0.15788C7.26318 0.0706592 7.19252 0 7.1053 0H5.21055C5.12333 0 5.05267 0.0707196 5.05267 0.15788V3.94736C5.05267 4.03458 5.12333 4.10524 5.21055 4.10524Z" fill="#BBC2FA"/>
<path d="M22.2316 2.84207H19.8948V3.85258C19.8948 4.4526 19.4527 5.05257 18.8526 5.05257H16.9895C16.3466 5.007 15.8351 4.49552 15.7895 3.85258V2.84207H8.21055V3.85258C8.16498 4.49552 7.6535 5.007 7.01056 5.05257H5.14737C4.54734 5.05257 4.10525 4.45254 4.10525 3.85258V2.84207H1.76842C0.961067 2.8593 0.315584 3.5188 0.315765 4.32634V8.21054H23.6842V4.32634C23.6844 3.5188 23.0389 2.8593 22.2316 2.84207Z" fill="#BBC2FA"/>
<path d="M16.8948 4.10524H18.7895C18.8767 4.10524 18.9474 4.03452 18.9474 3.94736V0.15788C18.9474 0.0706592 18.8767 0 18.7895 0H16.8948C16.8075 0 16.7369 0.0707196 16.7369 0.15788V3.94736C16.7369 4.03458 16.8075 4.10524 16.8948 4.10524Z" fill="#BBC2FA"/>
<path d="M9.63161 17.6211L9.18952 20.179L11.4632 18.979L11.6842 18.9158L11.9053 18.979L14.1789 20.179L13.7369 17.6211C13.72 17.4726 13.7657 17.3239 13.8632 17.2106L15.7264 15.4421L13.1685 15.0632C13.019 15.0393 12.8899 14.9455 12.8211 14.8106L11.6843 12.5053L10.5475 14.8106C10.4787 14.9455 10.3496 15.0393 10.2001 15.0632L7.64221 15.4421L9.5054 17.2106C9.60272 17.3238 9.64847 17.4726 9.63161 17.6211Z" fill="#BBC2FA"/>
<path d="M0.315765 22.579C0.332932 23.3689 0.978293 24.0002 1.76842 24H22.2316C23.0217 24.0002 23.667 23.3689 23.6842 22.579V9.1579H0.315765V22.579ZM6.18948 14.9685C6.23989 14.7959 6.38967 14.6711 6.56841 14.6527L9.82102 14.1474L11.2737 11.2106C11.4042 10.9839 11.6938 10.9059 11.9206 11.0364C11.993 11.0781 12.053 11.1382 12.0948 11.2106L13.5474 14.1474L16.8 14.6527C16.9788 14.6711 17.1286 14.796 17.1789 14.9685C17.2362 15.1374 17.1864 15.3242 17.0526 15.4422L14.7158 17.7158L15.2842 20.9684C15.3061 21.1393 15.2336 21.3086 15.0947 21.4105C15.0117 21.4701 14.9127 21.5031 14.8105 21.5052C14.7315 21.5127 14.6526 21.4902 14.5895 21.4421L11.6842 19.9263L8.77897 21.4421C8.6206 21.5385 8.41884 21.526 8.27372 21.4105C8.13488 21.3086 8.06234 21.1393 8.08422 20.9684L8.65264 17.7158L6.31581 15.4422C6.18199 15.3242 6.13218 15.1373 6.18948 14.9685Z" fill="#BBC2FA"/>
</svg>
