<svg width="24" height="18" viewBox="0 0 24 18" fill="none" xmlns="http://www.w3.org/2000/svg">
<path d="M4.5 11.9146C4.70711 11.9146 4.875 11.7467 4.875 11.5396C4.875 11.3325 4.70711 11.1646 4.5 11.1646C4.29289 11.1646 4.125 11.3325 4.125 11.5396C4.125 11.7467 4.29289 11.9146 4.5 11.9146Z" fill="#BBC2FA"/>
<path d="M12 7.41458C9.72548 7.41458 7.875 9.26506 7.875 11.5396C7.875 13.8141 9.72548 15.6646 12 15.6646C14.2745 15.6646 16.125 13.8141 16.125 11.5396C16.125 9.26506 14.2745 7.41458 12 7.41458ZM12.0185 11.1647C12.8371 11.1746 13.5 11.8437 13.5 12.6646C13.5 13.3375 13.0546 13.9083 12.4432 14.0978C12.4031 14.1102 12.375 14.1461 12.375 14.188V14.5267C12.375 14.7265 12.2243 14.9008 12.025 14.9138C11.8066 14.9279 11.625 14.755 11.625 14.5396V14.1895C11.625 14.1482 11.5989 14.1107 11.5595 14.0986C10.9552 13.9126 10.5125 13.3543 10.5002 12.6928C10.4964 12.4841 10.6499 12.299 10.8583 12.29C11.073 12.2807 11.25 12.452 11.25 12.6646C11.25 13.09 11.606 13.4338 12.0358 13.4137C12.4173 13.3959 12.7313 13.082 12.7491 12.7004C12.7692 12.2707 12.4254 11.9146 12 11.9146C11.1728 11.9146 10.5 11.2417 10.5 10.4146C10.5 9.74169 10.9454 9.17085 11.5568 8.98138C11.5968 8.96896 11.625 8.9331 11.625 8.89119V8.55243C11.625 8.35269 11.7757 8.17832 11.975 8.16538C12.1934 8.15122 12.375 8.32419 12.375 8.53958V8.88969C12.375 8.93094 12.4011 8.96844 12.4405 8.98058C13.0448 9.16658 13.4874 9.72482 13.4997 10.3864C13.5036 10.5951 13.3501 10.7802 13.1416 10.7892C12.927 10.7985 12.75 10.6272 12.75 10.4146C12.75 10.001 12.4135 9.66458 12 9.66458C11.5838 9.66458 11.2456 10.0054 11.25 10.4226C11.2544 10.8365 11.6046 11.1597 12.0185 11.1647Z" fill="#BBC2FA"/>
<path d="M22.875 5.16458H1.125C0.504703 5.16458 0 5.66928 0 6.28958V16.7896C0 17.4099 0.504703 17.9146 1.125 17.9146H22.875C23.4953 17.9146 24 17.4099 24 16.7896V6.28958C24 5.66924 23.4953 5.16458 22.875 5.16458ZM7.875 16.4146H3C2.79394 16.4146 2.62425 16.2484 2.625 16.0423C2.6265 15.6266 2.28797 15.2881 1.87228 15.2896C1.66622 15.2903 1.5 15.1206 1.5 14.9146V8.16458C1.5 7.95852 1.66622 7.78883 1.87228 7.78958C2.28797 7.79108 2.6265 7.45255 2.625 7.03686C2.62425 6.8308 2.79394 6.66458 3 6.66458H7.86216C8.06189 6.66458 8.23627 6.81528 8.2492 7.0146C8.26336 7.23299 8.09039 7.41458 7.875 7.41458H3.43219C3.37162 7.41458 3.31819 7.45349 3.29911 7.511C3.15023 7.9596 2.79497 8.31486 2.34642 8.46369C2.28891 8.48277 2.25 8.53621 2.25 8.59677V14.4823C2.25 14.5429 2.28891 14.5963 2.34642 14.6154C2.79502 14.7643 3.15028 15.1196 3.29911 15.5681C3.31819 15.6256 3.37162 15.6645 3.43219 15.6645H7.86211C8.06184 15.6645 8.23622 15.8152 8.24916 16.0145C8.26336 16.233 8.09034 16.4146 7.875 16.4146ZM5.625 11.5396C5.625 12.1599 5.1203 12.6646 4.5 12.6646C3.8797 12.6646 3.375 12.1599 3.375 11.5396C3.375 10.9193 3.8797 10.4146 4.5 10.4146C5.1203 10.4146 5.625 10.9192 5.625 11.5396ZM12 16.4146C9.31191 16.4146 7.125 14.2277 7.125 11.5396C7.125 8.85149 9.31191 6.66458 12 6.66458C14.6881 6.66458 16.875 8.85149 16.875 11.5396C16.875 14.2277 14.6881 16.4146 12 16.4146ZM22.5 14.9146C22.5 15.1206 22.3338 15.2903 22.1277 15.2896C21.712 15.2881 21.3735 15.6266 21.375 16.0423C21.3757 16.2484 21.2061 16.4146 21 16.4146H16.1378C15.9381 16.4146 15.7637 16.2639 15.7508 16.0646C15.7366 15.8462 15.9096 15.6646 16.125 15.6646H20.5678C20.6284 15.6646 20.6818 15.6257 20.7009 15.5682C20.8498 15.1196 21.205 14.7643 21.6536 14.6155C21.711 14.5964 21.75 14.543 21.75 14.4824V8.59677C21.75 8.53621 21.7111 8.48277 21.6536 8.46369C21.205 8.31482 20.8497 7.95955 20.7009 7.511C20.6818 7.45353 20.6284 7.41458 20.5678 7.41458H16.1379C15.9382 7.41458 15.7638 7.26388 15.7508 7.06457C15.7367 6.84617 15.9097 6.66458 16.125 6.66458H21C21.2061 6.66458 21.3758 6.8308 21.375 7.03686C21.3735 7.45255 21.7121 7.79108 22.1278 7.78958C22.3338 7.78883 22.5 7.95852 22.5 8.16458V14.9146H22.5ZM18.375 11.5396C18.375 10.9193 18.8797 10.4146 19.5 10.4146C20.1203 10.4146 20.625 10.9193 20.625 11.5396C20.625 12.1599 20.1203 12.6646 19.5 12.6646C18.8797 12.6646 18.375 12.1599 18.375 11.5396Z" fill="#BBC2FA"/>
<path d="M19.5 11.9146C19.7071 11.9146 19.875 11.7467 19.875 11.5396C19.875 11.3325 19.7071 11.1646 19.5 11.1646C19.2929 11.1646 19.125 11.3325 19.125 11.5396C19.125 11.7467 19.2929 11.9146 19.5 11.9146Z" fill="#BBC2FA"/>
<path d="M22.5916 3.24686C22.5143 2.62689 21.9462 2.18589 21.3194 2.27233L6.99406 4.32124C6.93646 4.32949 6.9425 4.41452 7.00072 4.41452H22.6312C22.6876 4.41452 22.7312 4.36511 22.7242 4.30914L22.5916 3.24686Z" fill="#BBC2FA"/>
<path d="M20.4909 1.63319C20.5459 1.62532 20.5816 1.57164 20.5681 1.51774L20.4236 0.9393C20.2717 0.329878 19.6504 -0.0384655 19.0361 0.126956L7.2479 3.43296C7.19156 3.44875 7.20895 3.5328 7.26689 3.5245C10.2292 3.10089 18.3097 1.94547 20.4909 1.63319Z" fill="#BBC2FA"/>
</svg>
