<svg width="18" height="22" viewBox="0 0 18 22" fill="none" xmlns="http://www.w3.org/2000/svg">
<path d="M17.2162 17.8595C16.7328 16.4209 14.8063 15.5204 13.4328 14.9168C12.8947 14.6812 11.405 14.2813 11.226 13.6038C11.1619 13.3597 11.1705 13.1296 11.2231 12.909C11.1403 12.9248 11.0563 12.9342 10.9694 12.9342H10.0745C9.35999 12.9342 8.77943 12.3529 8.77943 11.6389C8.77943 10.9254 9.36023 10.3453 10.0745 10.3453H10.9694C11.2651 10.3453 11.5454 10.4454 11.7715 10.624C12.103 10.5798 12.4226 10.509 12.7207 10.4161C13.1121 9.59604 13.4174 8.6154 13.4858 7.77132C13.7779 4.1598 11.5639 2.04684 8.38943 2.41212C6.08135 2.6778 4.70255 4.39884 4.55351 6.61452C4.40279 8.87292 5.24015 10.5409 6.12959 11.7644C6.51911 12.2994 6.92831 12.6433 6.86543 13.288C6.79247 14.0502 5.97743 14.2626 5.39447 14.4968C4.70375 14.7743 3.95975 15.1952 3.60839 15.3899C2.39807 16.0583 1.06967 16.8632 0.771111 17.9644C0.109911 20.4047 2.34287 21.1439 4.18631 21.4852C5.76839 21.777 7.55231 21.8 9.01967 21.8C11.6738 21.8 16.4465 21.6937 17.2162 19.6986C17.435 19.1324 17.3412 18.2303 17.2162 17.8595Z" fill="#BBC2FA"/>
<path d="M11.5359 11.2743C11.4144 11.0893 11.2068 10.9664 10.9699 10.9664H10.075C9.70153 10.9664 9.40033 11.2681 9.40033 11.6396C9.40033 12.0126 9.70153 12.3147 10.075 12.3147H10.9699C11.2313 12.3147 11.4531 12.1657 11.5649 11.9502C12.8127 11.852 13.8979 11.4709 14.6597 10.9081C14.8347 11.0209 15.0415 11.0869 15.2647 11.0869H15.3209C15.943 11.0869 16.446 10.5834 16.446 9.96057V7.71225C16.446 7.26441 16.1834 6.87801 15.8047 6.69849C15.6396 3.08817 12.6509 0.200012 9.00001 0.200012C5.34913 0.200012 2.35993 3.08817 2.19553 6.69849C1.81609 6.87825 1.55377 7.26441 1.55377 7.71225V9.96057C1.55377 10.5834 2.05729 11.0869 2.67793 11.0869H2.73481C3.35593 11.0869 3.85969 10.5834 3.85969 9.96057V7.71225C3.85969 7.27089 3.60457 6.89025 3.23377 6.70617C3.39433 3.66417 5.91865 1.23945 9.00001 1.23945C12.0802 1.23945 14.6057 3.66417 14.7655 6.70617C14.3952 6.89049 14.1403 7.27089 14.1403 7.71225V9.96057C14.1403 10.1099 14.1694 10.2488 14.2205 10.3787C13.5648 10.8479 12.6103 11.1822 11.5359 11.2743Z" fill="#BBC2FA"/>
</svg>
