<svg width="24" height="24" viewBox="0 0 24 24" fill="none" xmlns="http://www.w3.org/2000/svg">
<path d="M23.6697 7.185L12.3728 0.106877C12.1449 -0.0359512 11.8551 -0.0359512 11.6272 0.106877L0.330281 7.185C0.124969 7.31339 0 7.53863 0 7.78102C0 8.02341 0.124969 8.24864 0.330281 8.37703L11.6272 15.4083C11.7412 15.4797 11.8709 15.5154 12 15.5154C12.1291 15.5154 12.2588 15.4797 12.3728 15.4083L23.6697 8.37703C23.875 8.24864 24 8.02341 24 7.78102C24 7.53863 23.875 7.31339 23.6697 7.185Z" fill="white"/>
<path d="M23.6697 15.6227L22.575 14.9385L12.3728 21.2855C12.2588 21.3569 12.1291 21.3926 12 21.3926C11.8709 21.3926 11.7412 21.3569 11.6272 21.2855L1.42505 14.9385L0.330281 15.6227C0.124969 15.7511 0 15.9764 0 16.2188C0 16.4611 0.124969 16.6864 0.330281 16.8148L11.6272 23.8929C11.7412 23.9643 11.8709 24 12 24C12.1291 24 12.2588 23.9643 12.3728 23.8929L23.6697 16.8148C23.875 16.6864 24 16.4611 24 16.2188C24 15.9764 23.875 15.7511 23.6697 15.6227Z" fill="white"/>
<path d="M23.6697 11.404L22.575 10.7198L12.3728 17.0668C12.2588 17.1382 12.1291 17.1739 12 17.1739C11.8709 17.1739 11.7412 17.1382 11.6272 17.0668L1.42505 10.7198L0.330281 11.404C0.124969 11.5324 0 11.7576 0 12C0 12.2424 0.124969 12.4676 0.330281 12.596L11.6272 19.6273C11.7412 19.6987 11.8709 19.7344 12 19.7344C12.1291 19.7344 12.2588 19.6987 12.3728 19.6273L23.6697 12.596C23.875 12.4676 24 12.2424 24 12C24 11.7576 23.875 11.5324 23.6697 11.404Z" fill="white"/>
</svg>
