<svg width="20" height="24" viewBox="0 0 20 24" fill="none" xmlns="http://www.w3.org/2000/svg">
<path d="M16.4891 0L16.5146 0.54375C16.5304 0.85575 16.4516 1.09425 16.2769 1.275C16.0414 1.5165 15.6589 1.638 15.3379 1.69275C15.3499 1.4145 15.3611 1.134 15.3701 0.84375C14.9059 0.84375 12.4519 0.84375 10.0039 0.84375C10.0016 0.84375 10.0001 0.84375 9.99787 0.84375C7.54912 0.84375 5.09662 0.84375 4.63237 0.84375C4.64137 1.134 4.65337 1.4145 4.66537 1.69275C4.34362 1.638 3.96187 1.51575 3.72562 1.27425C3.54937 1.09425 3.47062 0.855 3.48637 0.543L3.51262 0H0.669373L0.679123 0.528C0.836623 9.61125 4.68187 11.8103 6.44212 12.3405L6.15337 12.7507L7.00087 13.3485L7.29037 12.9352C7.86937 14.0138 8.37412 14.7022 8.58937 15.2528H8.19637V16.0755H8.67637C8.48212 17.346 5.91337 18.8175 5.91337 18.8175V19.593H5.28337V24H9.99712H10.0031H14.7169V19.593H14.0884V18.8175C14.0884 18.8175 11.5189 17.346 11.3246 16.0755H11.8046V15.2528H11.4124C11.6276 14.703 12.1324 14.016 12.7114 12.9352L13.0001 13.3485L13.8491 12.7507L13.5596 12.3405C15.3206 11.8103 19.1659 9.61125 19.3234 0.528L19.3324 0H16.4891ZM1.72912 1.03725H2.48737C2.55862 1.41 2.72737 1.73775 2.98687 2.0025C3.50587 2.53125 4.25062 2.691 4.72462 2.7405C5.00137 6.738 5.73862 9.40725 6.50437 11.2703C4.99762 10.7183 1.99312 8.66475 1.72912 1.03725ZM13.4966 11.2703C14.2624 9.40725 14.9996 6.738 15.2764 2.7405C15.7511 2.691 16.4951 2.53125 17.0134 2.0025C17.2744 1.73775 17.4424 1.41 17.5136 1.03725H18.2719C18.0094 8.66475 15.0041 10.7183 13.4966 11.2703Z" fill="#BBC2FA"/>
</svg>
