<svg width="16" height="22" viewBox="0 0 16 22" fill="none" xmlns="http://www.w3.org/2000/svg">
<path d="M12.5 7.49001L15.5 1.58751C15.5658 1.4735 15.6005 1.34417 15.6005 1.21251C15.6005 1.08086 15.5658 0.951529 15.5 0.837514C15.43 0.731121 15.334 0.644309 15.2212 0.585262C15.1083 0.526214 14.9823 0.496876 14.855 0.500014H10.895C10.7565 0.500434 10.6208 0.539197 10.503 0.612006C10.3852 0.684816 10.2898 0.788828 10.2275 0.912514L7.99999 5.29251L5.74999 0.912514C5.68944 0.792164 5.59759 0.690347 5.48409 0.617761C5.37059 0.545175 5.23964 0.504501 5.10499 0.500014H1.14499C1.01555 0.49926 0.88812 0.532019 0.775094 0.595103C0.662068 0.658187 0.567293 0.74945 0.499987 0.860014C0.43416 0.974028 0.399506 1.10336 0.399506 1.23501C0.399506 1.36667 0.43416 1.496 0.499987 1.61001L3.49999 7.51251C3.56334 7.6348 3.65914 7.73728 3.77688 7.80872C3.89462 7.88016 4.02977 7.9178 4.16749 7.91751H5.86249C5.75373 8.24919 5.69805 8.59596 5.69749 8.94501C5.69007 9.08492 5.69007 9.22511 5.69749 9.36501C4.32221 9.90333 3.17812 10.9051 2.46284 12.1972C1.74757 13.4893 1.50603 14.9907 1.77994 16.4419C2.05385 17.8932 2.82601 19.2032 3.96305 20.1457C5.10009 21.0882 6.5306 21.604 8.00749 21.604C9.48437 21.604 10.9149 21.0882 12.0519 20.1457C13.189 19.2032 13.9611 17.8932 14.235 16.4419C14.5089 14.9907 14.2674 13.4893 13.5521 12.1972C12.8369 10.9051 11.6928 9.90333 10.3175 9.36501C10.3377 9.22079 10.3503 9.07558 10.355 8.93001C10.3716 8.58171 10.3362 8.23288 10.25 7.89501H11.8925C12.0199 7.88485 12.1425 7.84231 12.2488 7.77143C12.3552 7.70055 12.4416 7.60368 12.5 7.49001ZM11.81 14.24L9.89749 16.1075L10.3475 18.7475L7.99999 17.4875L5.62999 18.7325L6.07999 16.0925L4.16749 14.225L6.81499 13.8425L7.99999 11.435L9.18499 13.8425L11.81 14.24ZM8.84749 8.93751C8.84749 8.93751 8.84749 8.93751 8.84749 8.99001C8.5671 8.94396 8.28399 8.9164 7.99999 8.90751C7.72642 8.9083 7.45324 8.92835 7.18249 8.96751C7.17898 8.95272 7.17898 8.93731 7.18249 8.92251C7.17262 8.55367 7.28612 8.19207 7.50499 7.89501H8.55499C8.77119 8.19302 8.88202 8.55453 8.86999 8.92251L8.84749 8.93751Z" fill="#BBC2FA"/>
</svg>
