<svg width="19" height="19" viewBox="0 0 19 19" fill="none" xmlns="http://www.w3.org/2000/svg">
<path fill-rule="evenodd" clip-rule="evenodd" d="M18.53 17.47L14.161 13.1C15.4704 11.5169 16.1197 9.49031 15.9742 7.44104C15.8287 5.39178 14.8995 3.47729 13.3795 2.09508C11.8596 0.712875 9.86575 -0.0308461 7.81192 0.0183416C5.75808 0.0675292 3.80209 0.905846 2.35008 2.35923C0.898073 3.81261 0.0616027 5.76939 0.0143535 7.82327C-0.0328957 9.87715 0.712707 11.8703 2.09635 13.3889C3.47999 14.9076 5.39536 15.8349 7.44476 15.9785C9.49415 16.1221 11.5201 15.4708 13.102 14.16L17.47 18.53C17.5395 18.5998 17.6221 18.6552 17.713 18.6929C17.804 18.7307 17.9015 18.7502 18 18.7502C18.0985 18.7502 18.196 18.7307 18.287 18.6929C18.3779 18.6552 18.4605 18.5998 18.53 18.53C18.6695 18.3889 18.7477 18.1984 18.7477 18C18.7477 17.8016 18.6695 17.6111 18.53 17.47Z" fill="#6B7093"/>
</svg>
