<svg width="25" height="14" viewBox="0 0 25 14" fill="none" xmlns="http://www.w3.org/2000/svg">
<path d="M13.1438 0.38501C11.4309 0.38501 10.0373 1.86257 10.0373 3.67873C10.0373 5.49488 11.4309 6.97244 13.1438 6.97244C14.8568 6.97244 16.2504 5.49488 16.2504 3.67873C16.2504 1.86257 14.8568 0.38501 13.1438 0.38501Z" fill="#BBC2FA"/>
<path d="M20.2066 0.856323C20.1996 0.856323 20.1924 0.856356 20.1854 0.85639C19.4666 0.86234 18.7951 1.16586 18.2947 1.71112C17.8032 2.24673 17.5359 2.95333 17.542 3.70072C17.5482 4.44811 17.8271 5.1502 18.3275 5.67766C18.8317 6.20922 19.4997 6.50114 20.2106 6.50114C20.2177 6.50114 20.2249 6.50111 20.2321 6.50108C20.9509 6.49513 21.6224 6.19157 22.1227 5.64635C22.6143 5.11074 22.8816 4.40413 22.8755 3.65671C22.8627 2.10788 21.6675 0.856323 20.2066 0.856323Z" fill="#BBC2FA"/>
<path d="M5.79206 0.856323C5.79907 0.856323 5.80619 0.856356 5.8132 0.85639C6.53207 0.86234 7.20354 1.16586 7.70388 1.71112C8.19545 2.24673 8.46274 2.95333 8.45659 3.70072C8.45041 4.44811 8.17148 5.1502 7.67117 5.67766C7.16691 6.20922 6.49893 6.50114 5.78804 6.50114C5.78089 6.50114 5.77374 6.50111 5.76656 6.50108C5.04769 6.49513 4.37623 6.19157 3.87588 5.64635C3.38432 5.11074 3.11702 4.40413 3.12317 3.65671C3.13597 2.10788 4.33115 0.856323 5.79206 0.856323Z" fill="#BBC2FA"/>
<path d="M20.3376 7.04041H20.0797C18.8783 7.04041 17.782 7.49714 16.9543 8.24572C17.1614 8.40462 17.3586 8.5778 17.5454 8.76462C18.0965 9.31575 18.5293 9.95797 18.8318 10.6733C19.1044 11.3175 19.2599 11.9963 19.2962 12.6954H25V11.7025C25 9.13193 22.9085 7.04041 20.3376 7.04041Z" fill="#BBC2FA"/>
<path d="M5.66104 7.04041H5.91899C7.12032 7.04041 8.21661 7.49714 9.04431 8.24572C8.83722 8.40462 8.6401 8.5778 8.45329 8.76462C7.90215 9.31575 7.46935 9.95797 7.16686 10.6733C6.89428 11.3175 6.73872 11.9963 6.70248 12.6954H0.99866V11.7025C0.99866 9.13193 3.09018 7.04041 5.66104 7.04041Z" fill="#BBC2FA"/>
<path d="M18.2969 12.6954C18.2029 11.1799 17.4347 9.84693 16.2882 8.99264C15.4542 8.37103 14.4197 8.00305 13.2992 8.00305H12.9887C10.2227 8.00308 7.98059 10.2452 7.98059 13.0111V13.6055H18.3069V13.0111C18.3069 12.9051 18.3036 12.7997 18.2969 12.6954Z" fill="#BBC2FA"/>
</svg>
